<svg t="1685585218692" class="icon" viewBox="0 0 1024 1024" version="1.1" xmlns="http://www.w3.org/2000/svg" p-id="4156" width="200" height="200"><path d="M418.299902 828.118169c-223.876357 0-406.025203-182.131735-406.025203-406.0214 0-223.887765 182.148846-406.019499 406.025203-406.0195s406.027104 182.129833 406.027104 406.0195-182.148846 406.021401-406.027104 406.0214z m0-749.576069c-189.440276 0-343.560372 154.120097-343.560373 343.554669 0 189.438374 154.120097 343.55657 343.560373 343.556569 189.438374 0 343.562274-154.120097 343.562273-343.556569 0-189.434572-154.123899-343.554668-343.562273-343.554669zM918.056574 1015.525971c-24.00563 0-47.980839-9.135676-66.248388-27.405128l-174.159645-168.818934 43.493805-44.838014 174.494271 169.155462c12.506655 12.519964 32.361779 12.489544 44.501486 0.336527 5.88638-5.88638 9.120466-13.753899 9.120466-22.127159s-3.234086-16.214162-9.120466-22.08343l-169.46347-174.828898 44.838014-43.461483 169.125041 174.460048c17.356835 17.309302 27.085712 40.841512 27.085712 65.913763 0 25.038028-9.728877 48.587349-27.391819 66.276908-18.297971 18.269452-42.27318 27.420338-66.275007 27.420338z" fill="#515151" p-id="4157"></path><path d="M241.76365 598.693861c-97.421864-97.372431-97.421864-255.867385 0-353.313966l44.164959 44.164959c-73.047385 73.077806-73.047385 191.953775 0 264.984049l-44.164959 44.164958z" fill="#515151" p-id="4158"></path></svg>